<?xml version="1.0" encoding="utf-8" ?><svg xmlns="http://www.w3.org/2000/svg" xmlns:xlink="http://www.w3.org/1999/xlink" width="1853" height="524" viewBox="0 0 1853 524"><clipPath id="cl_3"><rect width="1853" height="524"/></clipPath><g clip-path="url(#cl_3)"><path fill="#0511D0" transform="translate(-81 -762)" d="M726.848 961.753C717.089 961.055 686.836 964.198 681.747 959.89C682.288 958.234 682.783 957.167 684.518 956.672C713.855 948.355 730.955 927.758 742.932 900.756C756.875 869.323 773.228 842.727 803.353 824.281C827.597 809.436 854.207 800.13 882.897 806.349C907.95 811.779 924.51 831.399 917.871 857.678C911.553 880.934 886.341 902.865 866.411 914.833C866.057 901.584 867.441 894.786 863.287 881.495C850.606 840.914 795.669 830.301 775.743 871.889C768.933 886.122 768.265 902.527 773.896 917.266C793.893 968.177 875.57 946.036 907.332 920.305C924.57 906.34 929.315 894.133 937.426 874.348C942.375 869.913 943.06 859.95 944.844 853.193C944.826 869.623 941.458 896.258 942.872 910.177C941.39 920.562 939.363 930.995 937.47 941.324C956.831 942.097 1101.95 941.374 1107.53 943.876C1106.47 952.495 1071.3 950.149 1080.81 982.902C1099.47 1047.14 1117.15 1116.88 1139.47 1179.72C1143.6 1168.52 1146.58 1153.25 1149.28 1141.43L1163.62 1080.46C1166.43 1068.2 1169.12 1052.89 1172.74 1041.33C1164.32 1017.44 1158.7 986.984 1147.52 963.651C1143.76 955.807 1122.98 949.613 1121.61 945.616L1122.63 943.825C1131.93 941.572 1245.62 941.163 1253.45 942.638L1254.41 944.108C1253.17 948.018 1240.03 951.588 1235.25 962.122C1233.57 965.918 1233.07 970.132 1233.82 974.215C1236.2 987.854 1250.92 1033.84 1255.7 1048.91C1269.04 1090.93 1281.5 1136.82 1295.96 1178.14C1303.93 1155.88 1308.11 1128.79 1312.92 1105.5C1317.79 1079.39 1324.09 1054.79 1328.67 1028.54C1340.03 963.373 1354.24 873.852 1433.03 860.334C1457.42 856.148 1481.12 865.412 1500.66 880.163C1441.21 952.953 1459.48 1067.18 1456.32 1154.72C1456.15 1167.92 1456.34 1180.92 1457.04 1194.06C1458.55 1222.32 1487.75 1225.56 1489.58 1195.17C1491.09 1170.26 1490.54 1145.15 1490.55 1120.12L1490.76 982.498C1517.03 977.909 1540.65 966.286 1556.38 944.171C1560.13 938.896 1567.06 927.906 1572.01 924.633L1573.56 925.575C1575.2 931.886 1568.33 957.181 1566.73 966.673C1562.65 989.778 1561.01 1013.25 1561.83 1036.7C1575.31 987.735 1599.56 937.616 1653.14 922.199C1678.74 914.835 1706.59 926.93 1710.94 954.978C1714.46 977.683 1705.94 1004.75 1693.36 1023.74C1688.26 1019.02 1683.85 1015.18 1677.79 1011.68C1661.45 1002.04 1641.9 999.448 1623.6 1004.49C1603.48 1009.96 1589.73 1023.11 1579.51 1040.88C1574.94 1048.84 1571.27 1057.37 1569.88 1066.5C1567.46 1082.34 1566.82 1188.01 1570.76 1201.14C1575.52 1217 1587.86 1225.67 1601.47 1233.35C1590.98 1233.69 1575.93 1233.02 1564.98 1232.93C1541.35 1232.75 1517.72 1232.71 1494.09 1232.83L1405.87 1232.88C1386.71 1232.94 1365.8 1233.49 1346.76 1232.8C1359.15 1225.84 1369.72 1217.17 1375.13 1203.54C1381.37 1187.83 1378.46 1160.22 1378.4 1142.91C1378.34 1125.02 1375.91 1002.45 1379.78 995.714C1381.52 992.708 1397.31 988.659 1401.26 987.295C1420.93 980.506 1445.72 968.19 1459.26 951.886C1460.92 949.891 1461.51 948.713 1461.31 946.16C1458.49 943.781 1456.44 943.706 1453.04 942.915C1399.62 930.474 1360.36 970.319 1346.66 1018.43C1334.9 1058.58 1326.09 1099.76 1317.59 1140.72C1311.18 1171.61 1303.48 1202.41 1297.49 1233.33C1272.84 1234.28 1236.12 1233.47 1210.9 1233.11C1217.55 1228.12 1226.87 1221.38 1224.99 1212C1222.12 1197.71 1216.53 1182.55 1212.17 1168.6C1201.64 1134.38 1190.74 1100.27 1179.46 1066.29C1174.64 1078.82 1165.41 1120.78 1162.29 1135.88C1155.95 1166.55 1145.76 1202.8 1140.66 1232.97C1111.73 1233.19 1082.79 1233.22 1053.85 1233.06C1067.8 1224.2 1071.6 1220.36 1066.56 1203.14C1048.85 1142.67 1028.61 1082.9 1010.53 1022.52C1004.56 1002.57 998.427 981.72 991.64 962.098C972.926 961.361 949.562 961.591 930.877 961.897C928.702 1005.06 931.988 1052.08 930.654 1095.27C931.534 1129.87 922.81 1176.2 969.867 1182.88C991.1 1185.89 999.927 1167.2 1012.8 1161.36L1013.41 1162.48C1011.3 1178.06 999.823 1199.02 989.224 1209.58C940.045 1258.56 869.38 1232.31 857.671 1165.12C852.095 1133.12 853.444 1108.1 853.274 1077.26L852.935 961.969C836.873 962.07 820.809 961.98 804.749 961.699L804.992 1106.3C804.99 1131.24 804.339 1156.48 805.424 1181.36C806.735 1211.39 821.693 1223.55 847.737 1232.82C827.21 1233.66 802.556 1232.71 781.687 1232.58C752.422 1232.4 722.778 1232.97 693.621 1232.56C707.677 1224.61 723.117 1213.21 725.025 1195.53C728.338 1164.83 727.722 1130.33 727.158 1099.21C726.344 1054.2 729.31 1006.47 726.848 961.753Z"/><path fill="#0511D0" transform="translate(-81 -762)" d="M564.666 940.583L565.761 940.464C725.58 924.38 759.029 1138.37 645.756 1217.08C632.507 1226.29 610.171 1234.52 594.172 1235.99C520.318 1243.45 462.541 1197.59 449.1 1125.16C440.86 1080.48 450.678 1034.36 476.401 996.913C498 965.904 527.625 947.045 564.666 940.583ZM619.499 1219.43C657.1 1199.85 645.577 1135.15 638.782 1100.92C631.193 1062.69 589.064 949.155 542.741 956.279C533.969 959.265 526.024 964.595 522.57 973.649C506.792 1015.01 520.134 1073.78 534.315 1114.1C544.885 1144.15 581.326 1227.87 619.499 1219.43Z"/><path fill="#0511D0" transform="translate(-81 -762)" d="M457.547 928.671L458.346 929.425C460.934 936.992 444.166 985.692 440.058 994.907C427.633 1022.78 414.514 1035.76 386.719 1046.75C381.148 1003.36 358.947 941.252 301.925 950.527C285.002 953.279 275.674 968.955 278.444 985.346C282.06 1006.75 296.086 1016.39 313.478 1026.44C337.839 1042.05 363.541 1054.9 388.159 1070C409.222 1082.93 431.2 1100.33 437.899 1125.26C449.034 1168.1 429.977 1203.33 392.003 1224.04C357.566 1242.81 319.844 1241.86 283.483 1229.35C259.193 1221 234.933 1208.5 208.631 1211.71C175.536 1214.32 168.336 1244.13 158.53 1246.8C163.86 1206.64 187.254 1135.04 234.194 1123.74C252.05 1119.44 272.095 1130.22 286.872 1139.83C283.743 1176.76 297.544 1235.38 347.496 1227.86C369.414 1224.56 382.117 1199.52 376.934 1179.1C370.185 1152.5 338.657 1138.39 317.064 1125.55C281.708 1103.97 226.561 1082.69 216.034 1038.36C197.97 962.296 284.001 927.08 346.064 940.793C373.415 946.837 402.1 960.435 430.548 953.895C444.024 950.803 451.379 939.907 457.547 928.671Z"/><path fill="#0511D0" transform="translate(-81 -762)" d="M1756.36 940.437C1800.02 939.284 1835.72 961.607 1857.07 999.731C1865.87 1015.45 1870.82 1031.79 1877.13 1048.53L1720.34 1092.65C1708.28 1096.13 1689.19 1101.77 1696.48 1118.71C1714.92 1160.8 1772.2 1176.07 1813.33 1162.25C1853.88 1148.63 1864.02 1117.85 1880.65 1083.9C1880.75 1086.01 1880.82 1088.13 1880.85 1090.25C1881.44 1135.48 1863.64 1172.43 1832.6 1204.31C1792.64 1240.57 1732.81 1248.95 1684.83 1223.82C1651.66 1206.64 1626.91 1176.71 1616.28 1140.91C1607.84 1112.91 1605.44 1069.89 1618.46 1042.16C1622.65 1033.23 1630.76 1030.03 1639.54 1027.52C1656.56 1032.57 1669.14 1044.02 1681.66 1056.32C1683.16 1068.35 1685.32 1077.81 1688.73 1089.38C1713.88 1082.2 1743.48 1072.94 1768.53 1064.9C1779.59 1061.35 1786.42 1041.39 1785.03 1029.5C1782.07 1004.18 1764.44 983.974 1744.66 969.084C1736.84 963.213 1727.26 959.322 1719.47 953.147L1720.65 950.883C1729.4 944.446 1745.83 941.78 1756.36 940.437Z"/><path fill="#0511D0" fill-opacity="0.78039217" transform="translate(-81 -762)" d="M937.426 874.348C938.475 869.952 945.168 834.773 945.643 834.453C948.808 845.125 946.084 899.588 942.872 910.177C941.458 896.258 944.826 869.623 944.844 853.193C943.06 859.95 942.375 869.913 937.426 874.348Z"/></g></svg>