<?xml version="1.0" encoding="utf-8" ?><svg xmlns="http://www.w3.org/2000/svg" xmlns:xlink="http://www.w3.org/1999/xlink" width="1037" height="289" viewBox="0 0 1037 289"><path fill="#FED301" d="M390.573 29.043C385.078 27.725 379.406 27.305 373.777 27.799C351.498 30.384 333.136 39.314 319.088 57.147C307.401 71.983 306.76 86.976 292.13 99.243C291.744 99.5669 291.343 99.8953 290.935 100.23C287.155 103.328 282.746 106.941 283.269 112.272C283.707 116.747 297.317 128.827 300.745 133.213C323.744 162.647 330.697 200.798 306.529 231.871C305.431 233.283 304.249 234.655 303.068 236.025C298.231 241.637 293.413 247.228 294.428 255.491C294.929 259.563 297.289 262.893 300.544 265.286C303.919 267.768 307.875 269.066 311.982 269.689C320.422 270.97 360.852 271.303 368.725 269.861C373.359 269.012 377.137 265.958 379.642 262.056C383.285 256.385 383.302 249.527 381.808 243.16C378.217 227.862 368.979 211.967 360.322 199.011C358.29 195.97 354.907 191.703 350.947 186.708C336.337 168.279 313.861 139.929 322.296 126.57C324.948 122.37 329.841 120.297 334.527 119.356C345.25 117.201 398.738 118.992 407.064 124.815C409.273 126.359 410.181 128.551 410.572 131.134C411.881 139.774 407.284 149.634 402.98 158.864C400.846 163.44 398.785 167.86 397.551 171.901C388.193 202.54 396.646 240.182 422.977 260.127C433.488 268.089 446.13 271.76 459.285 270.321C459.42 270.306 459.553 270.274 459.687 270.25C489.984 265.33 510.354 238.237 506.9 207.451C505.818 197.807 498.403 190.892 488.495 192.753C482.142 194.465 477.759 197.602 473.533 200.628C467.471 204.968 461.732 209.076 450.96 208.41C445.747 208.13 440.702 206.468 436.344 203.594C416.777 190.526 413.793 156.287 425.869 137.06C433.357 126.164 442.593 123.078 454.354 120.09C458.68 118.991 463.803 119.267 468.875 119.541C476.967 119.977 484.929 120.407 489.321 115.236C492.945 110.969 489.096 104.962 484.769 101.878C481.114 99.2728 475.628 99.8315 470.266 100.377C463.613 101.055 457.152 101.713 454.622 96.281C453.944 90.841 456.152 83.9615 458.45 76.8033C462.355 64.6357 466.518 51.663 457.206 43.587C453.915 40.733 445.838 40.743 443.583 45.336C442.187 48.18 442.255 51.7316 442.321 55.2245C442.365 57.5137 442.408 59.7778 442.038 61.801C439.959 81.036 427.451 101.129 408.232 107.658C388.584 114.333 346.908 111.145 327.069 103.872C323.026 102.39 319.886 98.922 318.498 94.785C318.021 93.331 317.604 91.857 317.249 90.368C319.347 81.988 321.879 75.247 329.819 70.514C346.333 60.6708 356.931 71.3872 367.503 82.0775C378.041 92.7327 388.552 103.362 404.871 93.582C436.723 74.494 421.85 36.766 390.573 29.043Z"/><path fill="#FED301" d="M554.841 122.784C558.278 104.764 540.205 93.444 523.7 95.178C503.664 99.539 492.178 117.906 499.101 135.642C512.141 169.052 524.188 199.587 530.528 235.271C533.389 251.376 546.638 276.275 565.662 270.05C576.252 268.624 588.308 245.968 591.152 237.519C594.672 227.059 610.119 204.112 616.054 225.391C626.127 261.501 654.119 298.165 677.54 244.149C683.307 230.849 686.559 212.374 691.883 198.412C692.819 195.854 693.843 193.153 694.911 190.34C705.812 161.608 721.173 121.124 691.637 100.086C674.426 87.827 649.202 96.991 647.527 120.444C650.227 130.897 656.945 140.205 663.534 149.333C674.78 164.912 685.647 179.967 675.503 199.293C671.725 206.489 663.196 212.725 655.123 214.683C646.796 216.665 638.022 215.237 630.752 210.718C623.577 206.227 618.52 199.028 616.729 190.755C614.183 179.047 619.146 169.818 624.287 160.258C625.97 157.129 627.671 153.965 629.135 150.667C636.794 133.411 635.049 111.917 617.853 100.833C610.559 96.215 601.708 94.741 593.31 96.745C577.186 100.578 567.617 116.38 571.41 132.438C573.396 140.847 579.107 148.685 584.803 156.5C594.562 169.892 604.274 183.22 595.118 199.247C590.769 206.69 583.664 212.122 575.341 214.367C555.857 219.618 539.108 207.045 534.144 188.201C529.904 172.106 537.008 159.736 544.142 147.312C548.644 139.474 553.157 131.614 554.841 122.784Z"/><path fill="#FED301" d="M264.114 108.423C253.045 99.976 236.579 94.249 222.66 96.004C151.122 105.485 140.099 218.963 192.558 257.514C204.166 266.044 220.444 272.235 234.901 270.072C252.347 267.684 268.339 256.951 278.752 243.127C308.298 203.9 304.386 139.16 264.114 108.423ZM266.27 211.137C262.139 218.066 255.028 221.063 247.783 222.716C193.764 224.584 152.381 138.81 205.174 132.782C235.212 128.977 284.6 180.398 266.27 211.137Z"/><path fill="#FED301" d="M996.5 98.704C990.57 96.547 981.44 94.848 975.25 95.318C953.29 96.873 935.84 105.962 921.35 122.609C916.59 128.179 912.5 134.288 909.16 140.811C905.34 148.256 901.37 163.87 895.47 169.022C893.953 170.346 891.591 171.059 889.144 171.798C884.153 173.306 878.808 174.92 879.56 182.037C879.9 189.943 891.91 190.658 895.13 196.253C899.64 204.862 903.3 214.79 907.04 223.778C918.61 251.553 944.36 275.1 976.2 271.921C999.81 269.563 1016.39 253.727 1024.54 232.286C1026.78 222.953 1029.15 210.548 1023.75 201.861C1022.12 199.236 1019.67 197.357 1016.64 196.66C1009.38 194.988 1000.27 199.451 989.789 204.592C973.731 212.465 954.435 221.927 933.55 213.359C928.62 211.338 923.35 208.528 920.33 203.999C918.92 201.895 918.05 199.416 918.61 196.878C918.9 195.585 919.54 194.659 920.39 193.671C925.942 191.222 936.865 192.58 945.68 193.675C948.742 194.056 951.55 194.405 953.79 194.552C981.79 196.387 1012.51 187.882 1023.57 159.467C1032.77 135.811 1020.37 107.391 996.5 98.704ZM947.69 130.407C988.51 125.77 989.2 169.955 947.98 182.257C903.38 188.452 909.02 138.592 947.69 130.407Z"/><path fill="#FED301" d="M152.557 125.585C147.068 101.434 116.9 92.13 95.222 93.799C68.308 96.003 45.489 104.993 27.123 125.745C21.323 132.299 16.353 142.377 17.139 151.359C17.622 156.87 20.429 161.369 25.265 165.293C45.362 181.601 105.157 180.191 112.262 209.268C112.767 211.334 111.819 214.933 110.313 216.672C106.852 220.667 102.322 223.587 97.023 224.146C90.574 224.821 82.269 221.276 77.693 216.847C75.6498 214.87 73.6382 212.739 71.6057 210.586C62.5157 200.956 53.0063 190.882 38.37 192.129C21.401 193.574 13.145 207.654 15.048 223.761C19.365 260.286 59.944 275.076 92.231 270.533C94.748 270.172 96.88 269.975 99.365 269.42C108.032 267.697 113.049 265.753 120.699 262.245C138.469 254.354 155.988 230.765 149.964 210.798C138.048 171.298 83.794 170.546 50.906 162.137C29.275 156.606 32.254 131.252 53.838 127.091C72.8712 123.422 84.176 134.351 95.4303 145.232C106.036 155.485 116.596 165.695 133.537 163.604C151.4 160.967 155.94 140.474 152.557 125.585Z"/><path fill="#FED301" d="M812.391 114.459C811.004 105.258 809.47 95.0739 791.88 95.146C787.73 96.673 783.84 98.603 781.92 102.84C779.64 107.883 781.65 114.71 783.58 119.561C787.32 128.95 793.16 137.444 797.35 146.632C809.19 172.534 805.91 200.748 795.05 226.268C794.415 227.76 793.725 229.294 793.02 230.861C788.661 240.548 783.731 251.507 787.69 261.736C789.01 265.12 791.58 267.625 794.91 269.011C800.86 271.483 847.57 271.972 853.28 269.435C857.52 267.552 860.78 264.247 862.37 259.851C864.24 254.718 863.33 249.151 861.03 244.319C856.38 234.537 847.12 226.241 840.22 217.926C835.45 212.194 831.36 206.076 827.6 199.649C819.19 183.229 807.72 155.168 829.42 141.208C836.892 136.403 847.609 144.464 854.485 149.635C855.514 150.409 856.457 151.118 857.29 151.71C888.71 173.444 917.46 128.769 895.76 104.457C880.93 87.844 851.47 97.438 837.91 111.061C836.369 112.45 834.661 114.46 832.839 116.604C828.427 121.794 823.346 127.772 818.35 127.637C814.024 125.3 813.235 120.062 812.391 114.459Z"/><path fill="#FED301" d="M729.912 97.9224C727.559 97.9936 725.592 98.0531 724.204 98.067C707.45 105.719 717.721 125.685 724.18 137.85C734.697 157.659 738.592 177.355 731.354 199.122C727.485 210.323 719.265 223.908 712.835 234.15C711.879 235.672 710.928 237.083 710.023 238.426C704.871 246.067 701.187 251.531 706.429 262.981C707.775 265.924 710.702 269.034 714.083 269.99C724.361 271.631 738.495 271.373 750.435 271.155C753.648 271.097 756.702 271.041 759.48 271.026C782.93 268.021 774.59 246.289 766.37 232.841C750.091 206.17 744.918 176.122 757.8 146.962C759.014 144.214 761.23 140.681 763.691 136.758C771.284 124.652 781.205 108.834 771.19 100.933C765.986 96.8312 742.461 97.5428 729.912 97.9224Z"/><path fill="#FED301" d="M774.75 54.835C772.42 38.512 757.31 27.161 740.985 29.486C724.668 31.811 713.323 46.92 715.643 63.238C717.963 79.555 733.069 90.904 749.387 88.589C765.71 86.273 777.07 71.159 774.75 54.835Z"/><path fill="#030D63" d="M385.573 14.043C380.078 12.725 374.406 12.305 368.777 12.799C346.498 15.384 328.136 24.314 314.088 42.147C302.401 56.983 301.76 71.976 287.13 84.243C286.744 84.5669 286.343 84.8953 285.935 85.2297C282.155 88.328 277.746 91.9413 278.269 97.272C278.707 101.747 292.317 113.827 295.745 118.213C318.744 147.647 325.697 185.798 301.529 216.871C300.431 218.283 299.249 219.655 298.068 221.025C293.231 226.637 288.413 232.228 289.428 240.491C289.929 244.563 292.289 247.893 295.544 250.286C298.919 252.768 302.875 254.066 306.982 254.689C315.422 255.97 355.852 256.303 363.725 254.861C368.359 254.012 372.137 250.958 374.642 247.056C378.285 241.385 378.302 234.527 376.808 228.16C373.217 212.862 363.979 196.967 355.322 184.011C353.29 180.97 349.907 176.703 345.947 171.708C331.337 153.279 308.861 124.929 317.296 111.57C319.948 107.37 324.841 105.297 329.527 104.356C340.25 102.201 393.738 103.992 402.064 109.815C404.273 111.359 405.181 113.551 405.572 116.134C406.881 124.774 402.284 134.634 397.98 143.864C395.846 148.44 393.785 152.86 392.551 156.901C383.193 187.54 391.646 225.182 417.977 245.127C428.488 253.089 441.13 256.76 454.285 255.321C454.42 255.306 454.553 255.274 454.687 255.25C484.984 250.33 505.354 223.237 501.9 192.451C500.818 182.807 493.403 175.892 483.495 177.753C477.142 179.465 472.759 182.602 468.533 185.628C462.471 189.968 456.732 194.076 445.96 193.41C440.747 193.13 435.702 191.468 431.344 188.594C411.777 175.526 408.793 141.287 420.869 122.06C428.357 111.164 437.593 108.078 449.354 105.09C453.68 103.991 458.803 104.267 463.875 104.541C471.967 104.977 479.929 105.407 484.321 100.236C487.945 95.969 484.096 89.962 479.769 86.878C476.114 84.2728 470.628 84.8315 465.266 85.3774C458.613 86.0549 452.152 86.7128 449.622 81.281C448.944 75.841 451.152 68.9615 453.45 61.8033C457.355 49.6357 461.518 36.663 452.206 28.587C448.915 25.733 440.838 25.743 438.583 30.336C437.187 33.18 437.255 36.7316 437.321 40.2245C437.365 42.5137 437.408 44.7778 437.038 46.801C434.959 66.036 422.451 86.129 403.232 92.658C383.584 99.333 341.908 96.145 322.069 88.872C318.026 87.39 314.886 83.922 313.498 79.785C313.021 78.331 312.604 76.857 312.249 75.368C314.347 66.988 316.879 60.247 324.819 55.514C341.333 45.6708 351.931 56.3872 362.503 67.0775C373.041 77.7327 383.552 88.3619 399.871 78.582C431.723 59.494 416.85 21.766 385.573 14.043Z"/><path fill="#030D63" d="M549.841 107.784C553.278 89.764 535.205 78.444 518.7 80.178C498.664 84.539 487.178 102.906 494.101 120.642C507.141 154.052 519.188 184.587 525.528 220.271C528.389 236.376 541.638 261.275 560.662 255.05C571.252 253.624 583.308 230.968 586.152 222.519C589.672 212.059 605.119 189.112 611.054 210.391C621.127 246.501 649.119 283.165 672.54 229.149C678.307 215.849 681.559 197.374 686.883 183.412C687.819 180.854 688.843 178.153 689.911 175.34C700.812 146.608 716.173 106.124 686.637 85.086C669.426 72.827 644.202 81.991 642.527 105.444C645.227 115.897 651.945 125.205 658.534 134.333C669.78 149.912 680.647 164.967 670.503 184.293C666.725 191.489 658.196 197.725 650.123 199.683C641.796 201.665 633.022 200.237 625.752 195.718C618.577 191.227 613.52 184.028 611.729 175.755C609.183 164.047 614.146 154.818 619.287 145.258C620.97 142.129 622.671 138.965 624.135 135.667C631.794 118.411 630.049 96.917 612.853 85.833C605.559 81.215 596.708 79.741 588.31 81.745C572.186 85.578 562.617 101.38 566.41 117.438C568.396 125.847 574.107 133.685 579.803 141.5C589.562 154.892 599.274 168.22 590.118 184.247C585.769 191.69 578.664 197.122 570.341 199.367C550.857 204.618 534.108 192.045 529.144 173.201C524.904 157.106 532.008 144.736 539.142 132.312C543.644 124.474 548.157 116.614 549.841 107.784Z"/><path fill="#030D63" d="M259.114 93.423C248.045 84.976 231.579 79.249 217.66 81.004C146.122 90.485 135.099 203.963 187.558 242.514C199.166 251.044 215.444 257.235 229.901 255.072C247.347 252.684 263.339 241.951 273.752 228.127C303.298 188.9 299.386 124.16 259.114 93.423ZM261.27 196.137C257.139 203.066 250.028 206.063 242.783 207.716C188.764 209.584 147.381 123.81 200.174 117.782C230.212 113.977 279.6 165.398 261.27 196.137Z"/><path fill="#030D63" d="M991.5 83.704C985.57 81.547 976.44 79.848 970.25 80.318C948.29 81.873 930.84 90.962 916.35 107.609C911.59 113.179 907.5 119.288 904.16 125.811C900.34 133.256 896.37 148.87 890.47 154.022C888.953 155.346 886.591 156.059 884.144 156.798C879.153 158.306 873.808 159.92 874.56 167.037C874.9 174.943 886.91 175.658 890.13 181.253C894.64 189.862 898.3 199.79 902.04 208.778C913.61 236.553 939.36 260.1 971.2 256.921C994.81 254.563 1011.39 238.727 1019.54 217.286C1021.78 207.953 1024.15 195.548 1018.75 186.861C1017.12 184.236 1014.67 182.357 1011.64 181.66C1004.38 179.988 995.273 184.451 984.789 189.592C968.731 197.465 949.435 206.927 928.55 198.359C923.62 196.338 918.35 193.528 915.33 188.999C913.92 186.895 913.05 184.416 913.61 181.878C913.9 180.585 914.54 179.659 915.39 178.671C920.942 176.222 931.865 177.58 940.68 178.675C943.742 179.056 946.55 179.405 948.79 179.552C976.79 181.387 1007.51 172.882 1018.57 144.467C1027.77 120.811 1015.37 92.391 991.5 83.704ZM942.69 115.407C983.51 110.77 984.2 154.955 942.98 167.257C898.38 173.452 904.02 123.592 942.69 115.407Z"/><path fill="#030D63" d="M147.557 110.585C142.068 86.434 111.9 77.13 90.222 78.799C63.308 81.003 40.489 89.993 22.123 110.745C16.323 117.299 11.353 127.377 12.139 136.359C12.622 141.87 15.429 146.369 20.265 150.293C40.362 166.601 100.157 165.191 107.262 194.268C107.767 196.334 106.819 199.933 105.313 201.672C101.852 205.667 97.322 208.587 92.023 209.146C85.574 209.821 77.269 206.276 72.693 201.847C70.6498 199.87 68.6382 197.739 66.6057 195.586C57.5157 185.956 48.0063 175.882 33.37 177.129C16.401 178.574 8.14499 192.654 10.048 208.761C14.365 245.286 54.944 260.076 87.231 255.533C89.748 255.172 91.88 254.975 94.365 254.42C103.032 252.697 108.049 250.753 115.699 247.245C133.469 239.354 150.988 215.765 144.964 195.798C133.048 156.298 78.794 155.546 45.906 147.137C24.275 141.606 27.254 116.252 48.838 112.091C67.8712 108.422 79.176 119.351 90.4303 130.232C101.036 140.485 111.596 150.695 128.537 148.604C146.4 145.967 150.94 125.474 147.557 110.585Z"/><path fill="#030D63" d="M807.391 99.4587C806.004 90.2575 804.47 80.0739 786.88 80.146C782.73 81.673 778.84 83.603 776.92 87.84C774.64 92.883 776.65 99.71 778.58 104.561C782.32 113.95 788.16 122.444 792.35 131.632C804.19 157.534 800.91 185.748 790.05 211.268C789.415 212.76 788.725 214.294 788.02 215.861C783.661 225.548 778.731 236.507 782.69 246.736C784.01 250.12 786.58 252.625 789.91 254.011C795.86 256.483 842.57 256.972 848.28 254.435C852.52 252.552 855.78 249.247 857.37 244.851C859.24 239.718 858.33 234.151 856.03 229.319C851.38 219.537 842.12 211.241 835.22 202.926C830.45 197.194 826.36 191.076 822.6 184.649C814.19 168.229 802.72 140.168 824.42 126.208C831.892 121.403 842.609 129.464 849.485 134.635C850.514 135.409 851.457 136.118 852.29 136.71C883.71 158.444 912.46 113.769 890.76 89.457C875.93 72.844 846.47 82.438 832.91 96.061C831.369 97.4497 829.661 99.4595 827.839 101.604C823.427 106.794 818.346 112.772 813.35 112.637C809.024 110.3 808.235 105.062 807.391 99.4587Z"/><path fill="#030D63" d="M724.912 82.9224C722.559 82.9936 720.592 83.0531 719.204 83.067C702.45 90.719 712.721 110.685 719.18 122.85C729.697 142.659 733.592 162.355 726.354 184.122C722.485 195.323 714.265 208.908 707.835 219.15C706.879 220.672 705.928 222.083 705.023 223.426C699.871 231.067 696.187 236.531 701.429 247.981C702.775 250.924 705.702 254.034 709.083 254.99C719.361 256.631 733.495 256.373 745.435 256.155C748.648 256.097 751.702 256.041 754.48 256.026C777.93 253.021 769.59 231.289 761.37 217.841C745.091 191.17 739.918 161.122 752.8 131.962C754.014 129.214 756.23 125.681 758.691 121.758C766.284 109.652 776.205 93.8344 766.19 85.933C760.986 81.8312 737.461 82.5428 724.912 82.9224Z"/><path fill="#030D63" d="M769.75 39.835C767.42 23.512 752.31 12.161 735.985 14.486C719.668 16.811 708.323 31.92 710.643 48.238C712.963 64.555 728.069 75.904 744.387 73.589C760.71 71.273 772.07 56.159 769.75 39.835Z"/></svg>