<svg xmlns="http://www.w3.org/2000/svg" width="1076" height="328" viewBox="0 0 1076 328"><clipPath id="a"><path d="M0 0h1076v328H0z"/></clipPath><g fill="#030649" clip-path="url(#a)"><path d="M383.62 32.533c15.949-1.251 37.591 4.723 51.414 12.753-3.879 11.078-8.876 22.761-12.816 33.92-1.332 3.775-2.723 6.762-6.325 8.313-4.42-.877-8.953-9.385-11.843-13.13-21.439-27.79-55.256-49.492-47.324 6.724 3.641 25.806 20.772 24.915 42.107 24.559 19.445-.324 36.41-1.14 45.906-22.531 2.157-4.863 6.948-21.643 12.248-22.726 4.244 4.854-1.03 32.903 2.353 40.589 3.481 3.542 10.477 4.268 15.414 5.218-.064 2.919-.444 6.288-.703 9.234-6.083.036-10.717-.01-16.765-.502-1.491 13.722-.523 30.277-.836 44.293-.351 15.685-.482 31.856.608 47.445 1.488 16.647 13.956 23.158 28.86 16.212 7.878-3.672 11.744-20.205 17.51-19.454 2.547 9.733-7.199 32.184-13.676 39.979-10.25 12.337-20.477 16.382-36.051 18.118-10.264.085-20.909-2.349-28.654-9.41-16.714-15.237-14.95-36.641-14.904-57.001l-.105-48.591c-.008-5.307 1.41-25.822-1.95-28.806-5.761-2.274-28.124-1.829-34.724-1.075-2.528 1.704-3.775 3.995-3.675 7.182 1.133 36.089-2.351 73.422 1.673 109.23 1.697 15.104 14.212 17.791 24.602 24.242-7.485 2.147-92.746 1.563-98.529-.193 6.625-4.693 15.022-5.491 20.792-13.696 3.062-4.354 5.184-11.03 5.52-16.243 1.191-18.499.953-39.743.762-58.361-.138-13.433.931-40.546-.795-52.248-3.527-.367-8.832-.28-12.506-.329l-.198-10.004c6.295-1.168 8.806-1.53 14.213-4.955 4.016-38.215 16.275-64.782 58.397-68.756"/><path d="M222.378 102.843c43.348-5.353 82.872 25.335 88.426 68.658s-24.951 82.989-68.248 88.743c-43.582 5.792-83.565-24.957-89.155-68.564-5.59-43.608 25.343-83.448 68.977-88.837m22.128 149.613c6.448-1.831 10.283-4.229 13.585-10.476 11.386-21.543 4.499-62.486-1.507-84.56-3.693-13.572-13.387-38.583-26.436-45.341-3.944-2.043-5.917-1.911-10.251-1.763-33.759 12.955-16.254 87.387-6.729 111.751 5.028 12.86 15.018 32.255 31.338 30.389"/><path d="M482.172 104.955c12.311-.787 27.76-.065 40.317-.254 6.383-.096 22.285-.359 27.829.475 1.03 5.524-10.403 9.694-11.776 16.39-1.733 8.452 28.485 70.551 35.125 80.429 5.752-9.605 11.634-22.699 16.115-33.003-5.266-14.976-11.62-31.787-19.229-45.795-2.433-4.478-13.412-11.597-13.054-17.013 3.363-2.872 62.326-.451 70.834-1.338 1.765-.183 3.706.382 5.068 1.649-.749 3.335-6.601 7.59-8.26 10.939-1.004 2.026-1.8 5.191-2.376 7.399a128 128 0 0 0 1.022 3.345c2.667 8.309 23.752 61.588 29.019 64.308l1.466-1c3.429-7.353 6.171-14.699 9.127-21.854 7.728-18.707 9.253-29.038-1.161-47.093-2.663-4.616-7.098-11.331-7.583-16.608 2.772-1.953 30.096-1.057 35.474-1.012 3.633-.121 10.49-.807 13.364.963l.172 1.514c-4.304 7.319-11.169 8.741-15.823 20.237-5.709 14.104-11.713 28.306-17.372 42.476-7.744 19.387-16.733 38.366-24.526 57.744-2.257 5.434-11.655 29.322-14.381 32.688-2.031.528-2.307.442-4.33-.16-3.352-6.151-9.177-22.073-12.019-29.247l-21.237-53.496c-9.732 18.009-18.483 39.522-27.86 57.911-3.36 6.589-8.76 19.63-12.844 25.04l-2.174.139c-4.1-1.997-6.668-10.967-8.376-15.329-7.342-18.748-15.809-36.573-24.244-54.806-12.092-26.14-24.429-52.189-36.414-78.373-1.118-2.443-.522-4.798.107-7.265"/><path d="M977.19 102.269c31.03-4.261 65.42 13.343 71.27 46.158 1.09 6.121.75 11.888.56 18.091-18.3-.343-36.61-.486-54.91-.428-13.15-.089-28.1-.61-41.03.32-.04 15.412 3.19 30.449 12.55 42.978 18.98 25.39 56.79 18.176 74.89-4.004 2.72-3.333 6.13-9.931 9.13-12.311l1.19.181c1.04 2.208.32 4.401-.13 6.858-7.6 30.873-25.8 55.748-59.04 60.632a71.9 71.9 0 0 1-53.08-13.414c-16.72-12.554-25.68-29.55-28.61-50.065-6.58-46.085 19.4-88.532 67.21-94.996m-24.02 56.614 31.02.018 22.5.041c-1.81-16.087-9.61-48.617-29.22-50.851-20.19 4.912-23.05 33.685-24.3 50.792"/><path d="M83.633 101.526c19.355-2.9 41.387 3.67 59.062 10.894-.067 9.299-.771 18.869-1.273 28.178-.244 4.519.012 16.977-4.974 18.304-.968-.377-2.492-1.403-2.811-2.322-7.18-20.726-18.947-44.838-42.858-49.279-11.01-2.044-24.226 3.696-25.569 16.495-1.659 15.802 14.477 24.363 26.533 30.137 26.371 12.427 58.392 27.205 55.46 61.923-3.439 40.725-39.547 48.417-72.967 44.329-13.672-.822-33.659-9.017-45.904-14.817 2.459-14.678 1.958-32.945 3.316-47.922.263-2.903-.007-3.659 2.488-5.236 1.643.219 2.441-.033 3.262 1.603 2.654 5.131 4.415 10.206 7.115 15.37 10.367 19.695 28.717 46.331 53.876 44.966 9.815-.533 18.781-12.825 16.985-21.228-5.899-27.608-45.77-31.322-64.26-47.872-11.802-10.563-18.725-16.997-20.897-33.23-1.39-10.381 2.301-21.409 8.599-28.98 11.65-14.003 27.422-19.401 44.817-21.313"/><path d="m836.02 93.208 2.08.427c3.65 3.972 2.81 31.823 2.87 38.908 1.84-2.254 3.93-5.171 5.69-7.551 17.92-24.269 45.17-26.442 71.42-14.916-6.52 14.756-10.69 30.466-17.11 45.186l-1.73.851c-5.89-.628-11.4-9.746-16.86-13.304-11.14-7.26-38.92-7.064-41.45 9.451-1.27 8.29-.68 19.748-.61 28.341l.37 46.953c2.12 14.605 6.37 20.84 19.67 25.348 1.58.534 3.69 2.958 2.54 5-.47.203-1.75.705-2.44.697-26.03-.298-52.14.342-78.14-.206-.47-.427-.86-.781-1.16-1.064.02-4.897 6.43-3.437 9.91-8.508 2.51-3.649 3.96-8.137 4.26-12.586 1.05-16.09.77-32.716.88-48.92.09-13.047.68-27.249-.4-40.089-.66-7.834-7.24-11.218-13.3-15.575-.17-2.402 3.62-3.533 6.18-4.548 20.62-8.174 36.92-12.809 47.33-33.895"/><path d="M754.269 97.773c1.114.368 3.123.661 3.551 1.815 1.212 3.271-.003 15.416-.025 19.44-.103 18.865-2.12 102.645 2.143 114.814 3.245 9.26 11.905 14.899 16.192 23.344l-.41.693c-7.827 1.177-24.679.686-33.239.66l.071 18.381c6.297 3.27 11.608 7.026 14.42 13.865a19.72 19.72 0 0 1-.143 15.211 22.1 22.1 0 0 1-11.988 11.751 20.98 20.98 0 0 1-16.551-.291c-6.292-2.881-9.594-8.015-11.934-14.247-2.579-13.316 4.292-21.305 16.063-26.043.217-6.085.222-12.454.32-18.567-6.129-.093-42.438.855-44.815-1.344 1.609-6.167 21.863-10.403 23.269-27.729 2.25-27.728 1.653-57.214-.244-84.932-5.029-12.661-13.995-15.867 5.205-22.471 16.976-5.839 26.148-9.965 38.115-24.35"/><path d="M62.606 18.851a27 27 0 0 1 2.655-.218c16.963-.657 22.816 10.3 23.056 25.573a136 136 0 0 0 40.323 24.625c32.856 12.754 49.103 6.363 80.499-3.196 20.246-6.164 51.385-2.794 70.156 6.424 5.604 2.751 28.649 14.329 24.799 22.366-5.433 3.127-12.335-2.948-16.369-5.988a94.66 94.66 0 0 0-76.638-12.969c-11.102 2.936-21.617 7.668-33.124 9.268-37.104 5.16-65.756-9.861-94.44-30.808-7.78 5.793-15.956 9.109-25.466 4.707a21.01 21.01 0 0 1-10.958-12.092 21.2 21.2 0 0 1 .97-16.514c3.21-6.338 8.142-8.988 14.537-11.178"/><path d="m1010.74 18.171.62-.019c12.85-.321 22.53 7.676 22.57 20.885a21.32 21.32 0 0 1-6.48 15.453 20.8 20.8 0 0 1-15.05 5.962c-6.84-.127-11.72-3.425-16.21-8.163-22.92 21.562-69.4 40.359-100.4 30.307-37.79-12.253-62.08-20.244-99.93.421-5.95 3.268-9.3 7.495-15.17 10.403-8.32-.067-6.32-7.378-1.06-11.389 25.78-19.626 58.98-26.358 90.3-17.82 13.23 3.607 25.87 9.425 39.63 10.658 31.02 2.537 59.08-12.672 82.14-31.645.82-14.042 4.31-21.865 19.04-25.053"/><path d="M579.326 46.045a173.6 173.6 0 0 1 123.386 37.661c2.579 2.053 2.989 3.028 3.31 5.976-2.88 7.398-7.947 3.681-12.029.155-22.719-19.626-52.503-29.207-81.81-33.347-39.93-4.293-85.134 4.856-115.24 32.862-3.72 3.461-10.071 7.833-12.572.378.484-6.107 9.98-11.525 14.651-15.017 23.326-17.434 51.526-26.091 80.304-28.668"/><path d="M733.851 41.651c11.282-2.25 22.288 4.953 24.741 16.193s-4.551 22.374-15.745 25.029a21.099 21.099 0 1 1-8.996-41.222"/></g></svg>