<?xml version="1.0" encoding="utf-8" ?><svg xmlns="http://www.w3.org/2000/svg" xmlns:xlink="http://www.w3.org/1999/xlink" width="2048" height="590" viewBox="0 0 2048 590"><clipPath id="cl_3"><rect width="2048" height="590"/></clipPath><g clip-path="url(#cl_3)"><path fill="#0F0F10" transform="translate(0 -738)" d="M465.496 952.629C545.967 948.838 614.293 1010.96 618.158 1091.43C622.023 1171.89 559.965 1240.28 479.502 1244.22C398.932 1248.16 330.439 1186.01 326.569 1105.43C322.699 1024.86 384.919 956.424 465.496 952.629ZM477.504 1181.59C523.534 1178.95 558.757 1139.57 556.279 1093.53C553.801 1047.49 514.555 1012.13 468.507 1014.44C422.222 1016.76 386.635 1056.25 389.126 1102.53C391.617 1148.81 431.237 1184.25 477.504 1181.59Z"/><path fill="#0F0F10" transform="translate(0 -738)" d="M1195.57 952.413C1199.74 952.32 1204.03 952.426 1208.22 952.467C1230.69 1003.41 1251.76 1062.54 1275.47 1111.41C1297.81 1062.47 1319.38 1005.01 1340.97 954.5C1361.82 953.641 1387.32 954.186 1408.46 954.167C1394.81 987.336 1379.51 1020.43 1365.4 1053.54L1284.87 1243.59C1280.13 1243.85 1275.34 1243.63 1270.59 1243.51C1264.74 1233.12 1254.46 1205.06 1248.9 1192.77C1232.75 1157.01 1217.87 1120.03 1200.93 1084.63L1199.91 1082.97L1198.15 1082.58C1191.15 1089.23 1139.66 1221.32 1129.45 1243.34C1125.34 1243.54 1120.65 1243.39 1116.49 1243.36C1112.55 1235.61 1107.84 1223.14 1104.43 1214.84L1082.36 1161.15C1053.81 1092.28 1026.3 1022.51 996.591 954.248C1017.11 953.319 1042.25 953.754 1063.1 953.587C1084.07 1008.11 1107.44 1059.88 1128.1 1114.99C1138.26 1093.36 1186.91 960.618 1195.57 952.413Z"/><path fill="#0F0F10" transform="translate(0 -738)" d="M1811.17 953.432C1814.11 953.246 1817.06 953.143 1820 953.122C1876.44 952.971 1921.53 978.228 1949.16 1027.94C1966.2 1058.61 1966.66 1087.04 1966.39 1120.85C1956.89 1121.51 1944.95 1121.61 1935.4 1121.38C1878.6 1120 1819.59 1123.58 1763.04 1121.44C1759.91 1098.51 1760.15 1086.53 1771.3 1066.08C1811.28 1064.72 1857.02 1066.1 1897.72 1065.8C1895.22 1060.52 1892.79 1055.25 1889.75 1050.25C1872.43 1021.68 1839.33 1008.97 1807.2 1016.86C1784.78 1022.38 1765.5 1036.63 1753.65 1056.43C1740.51 1078.21 1738.94 1100.04 1744.99 1124.31C1757.81 1159.19 1785.54 1180.99 1823.05 1182.57C1855.04 1183.91 1871.83 1176.67 1895.17 1155.7C1907.98 1167.35 1923.46 1183.94 1935.81 1196.63L1934.7 1198.02C1912.52 1225.79 1879.91 1242.37 1844.69 1245.54C1759.63 1253.18 1686.65 1197.15 1678.56 1111.04C1674.86 1072.59 1686.7 1034.27 1711.43 1004.6C1736.48 974.871 1772.41 956.44 1811.17 953.432Z"/><path fill="#0F0F10" transform="translate(0 -738)" d="M825.904 791.463C832.478 790.922 837.526 790.904 844.133 790.942C845.055 807.324 844.258 834.625 844.247 851.762C814.165 853.981 792.686 855.412 766.586 873.716C739.765 892.525 725.762 920.288 720.224 951.995C750.173 953.062 782.957 952.723 813.088 952.788C814.002 970.74 813.414 996.741 813.504 1015.19C782.213 1015.96 749.383 1015.36 717.767 1015.74C716.618 1089.52 717.675 1165.15 717.187 1239.25C717.008 1243.46 717.719 1243.12 715.606 1245.74C707.562 1247.3 667.818 1246.66 657.14 1246.66C655.858 1169.97 656.816 1091.9 656.437 1015.06L616.719 1015.21C616.491 994.443 615.928 973.678 615.03 952.926L659.4 953.348C661.09 941.778 662.393 931.751 665.58 920.437C686.585 845.853 749.304 797.247 825.904 791.463Z"/><path fill="#0F0F10" transform="translate(0 -738)" d="M207.391 952.458C209.244 952.443 211.098 952.452 212.951 952.484C238.505 952.963 287.12 965.248 304.683 983.485C296.669 993.913 277.835 1020.83 270.265 1028.43C255.979 1021.04 244.489 1016.01 228.375 1013.31C211.968 1010.56 176.079 1011.14 173.67 1033.24C171.587 1053.47 200.142 1062.61 215.056 1067.86C243.255 1077.79 272.661 1085.68 292.138 1110.04C319.554 1144.34 313.562 1198.2 279.062 1225.22C254.613 1244.36 213.284 1250.47 183.249 1246.51C152.263 1243.66 117.824 1229.68 95.8043 1207.34C101.019 1197.32 122.12 1169.1 129.829 1160.22C136.711 1164.32 142.75 1168.91 150.206 1172.85C170.202 1183.42 192.84 1188.44 215.461 1186.32C229.844 1184.97 246.905 1176.28 244.114 1159.18C241.347 1142.23 220.389 1135.09 206.226 1129.92C171.636 1117.28 128.581 1105.15 114.551 1066.8C105.763 1040.37 107.886 1005.63 126.242 983.551C146.263 959.468 178.144 954.987 207.391 952.458Z"/><path fill="#0F0F10" transform="translate(0 -738)" d="M895.534 852.182C898.463 852.288 898.72 851.971 901.032 853.589C902.396 858.696 901.882 880.836 901.864 887.694L901.657 953.814L969.005 953.896C976.124 968.105 987.072 998.633 991.511 1014.2C982.437 1014.83 967.798 1014.41 958.361 1014.44L900.773 1014.91C900.053 1070.22 894.212 1131.07 947.101 1164.69C970.206 1179.38 991.891 1181.55 1018.15 1184.6L1018.12 1211.5L1018.22 1245.51C935.334 1247.86 862.704 1194.4 843.497 1112.17C835.376 1071.43 838.33 1028.68 838.472 987.43C838.663 931.979 825.145 866.748 895.534 852.182Z"/><path fill="#0F0F10" transform="translate(0 -738)" d="M1671.49 952.513L1689.56 952.078C1690.14 971.713 1689.59 993.539 1689.52 1013.33C1641.11 1015.85 1606.56 1034.65 1587.07 1080.73C1573.5 1112.81 1575.7 1142.98 1575.79 1176.75L1576.05 1246.31L1535.25 1246.78L1515.78 1247.01C1515.34 1221.87 1515.82 1196.19 1515.63 1171.17C1515.17 1113.09 1515.01 1062.08 1554.03 1014.57C1585.52 976.222 1622.53 957.608 1671.49 952.513Z"/><path fill="#0F0F10" transform="translate(0 -738)" d="M1428.58 953.453L1490.39 953.165L1489.83 1164.95C1489.9 1181.99 1490.06 1199.04 1490.31 1216.09C1490.39 1222.71 1490.87 1239.47 1489.84 1245.4L1487.25 1246.37L1426.53 1246.72C1426.44 1245.15 1426.38 1243.58 1426.36 1242.01C1425.55 1181.96 1426.3 1120.09 1426.3 1059.91L1426.27 993.1C1426.27 981.905 1426.15 970.354 1426.43 959.154C1426.53 955.24 1426.47 955.592 1428.58 953.453Z"/><path fill="#0F0F10" transform="translate(0 -738)" d="M1453.87 854.869C1475.38 851.24 1495.73 865.804 1499.24 887.329C1502.74 908.855 1488.06 929.122 1466.51 932.503C1445.14 935.857 1425.08 921.322 1421.6 899.97C1418.12 878.618 1432.54 858.467 1453.87 854.869Z"/></g></svg>